<mxfile host="app.diagrams.net" modified="2022-11-21T21:34:52.770Z" agent="5.0 (Windows NT 10.0; Win64; x64) AppleWebKit/537.36 (KHTML, like Gecko) Chrome/107.0.0.0 Safari/537.36 Edg/107.0.1418.52" etag="v0r55S8HjCfhAjlmA3eV" version="20.5.3" type="github">
  <diagram id="zJl_rynMWYwrQdr8I6ij" name="Page-1">
    <mxGraphModel dx="595" dy="344" grid="1" gridSize="10" guides="1" tooltips="1" connect="1" arrows="1" fold="1" page="1" pageScale="1" pageWidth="827" pageHeight="1169" math="0" shadow="0">
      <root>
        <mxCell id="0" />
        <mxCell id="1" parent="0" />
        <mxCell id="03z_p-ZI_NNYULRoPV4D-3" value="" style="rounded=0;whiteSpace=wrap;html=1;fontSize=14;strokeColor=default;strokeWidth=3;fillColor=#F0D8D8;" vertex="1" parent="1">
          <mxGeometry x="191" y="541" width="240" height="180" as="geometry" />
        </mxCell>
        <mxCell id="03z_p-ZI_NNYULRoPV4D-4" value="" style="rounded=0;whiteSpace=wrap;html=1;fontSize=14;strokeWidth=3;fillColor=#90F0D8;" vertex="1" parent="1">
          <mxGeometry x="190" y="172" width="270" height="243" as="geometry" />
        </mxCell>
        <mxCell id="03z_p-ZI_NNYULRoPV4D-5" value="Smart Home" style="rounded=0;whiteSpace=wrap;html=1;fontSize=14;strokeColor=default;strokeWidth=1;fillColor=#90F0D8;dashed=1;dashPattern=1 2;" vertex="1" parent="1">
          <mxGeometry x="334" y="210" width="100" height="40" as="geometry" />
        </mxCell>
        <mxCell id="03z_p-ZI_NNYULRoPV4D-6" value="&lt;b&gt;Personal Smart Environment&lt;/b&gt;" style="rounded=0;whiteSpace=wrap;html=1;fontSize=14;strokeColor=default;strokeWidth=2;fillColor=none;" vertex="1" parent="1">
          <mxGeometry x="276.25" y="313" width="110" height="50" as="geometry" />
        </mxCell>
        <mxCell id="03z_p-ZI_NNYULRoPV4D-7" value="Smart Office" style="rounded=0;whiteSpace=wrap;html=1;fontSize=14;strokeColor=default;strokeWidth=1;fillColor=none;dashed=1;dashPattern=1 2;" vertex="1" parent="1">
          <mxGeometry x="230" y="208.5" width="90.25" height="43" as="geometry" />
        </mxCell>
        <mxCell id="03z_p-ZI_NNYULRoPV4D-8" value="&lt;span style=&quot;color: rgba(0 , 0 , 0 , 0) ; font-family: monospace ; font-size: 0px&quot;&gt;%3CmxGraphModel%3E%3Croot%3E%3CmxCell%20id%3D%220%22%2F%3E%3CmxCell%20id%3D%221%22%20parent%3D%220%22%2F%3E%3CmxCell%20id%3D%222%22%20value%3D%22Hybrid%22%20style%3D%22rounded%3D0%3BwhiteSpace%3Dwrap%3Bhtml%3D1%3BfontSize%3D15%3BstrokeWidth%3D1%3BfillColor%3D%23F0C0C0%3Bdashed%3D1%3BdashPattern%3D1%201%3B%22%20vertex%3D%221%22%20parent%3D%221%22%3E%3CmxGeometry%20x%3D%22560%22%20y%3D%221563.5%22%20width%3D%2267%22%20height%3D%2233%22%20as%3D%22geometry%22%2F%3E%3C%2FmxCell%3E%3C%2Froot%3E%3C%2FmxGraphModel%3E&lt;/span&gt;" style="rounded=0;whiteSpace=wrap;html=1;fontSize=14;strokeColor=#000000;strokeWidth=3;fillColor=#F0C0C0;" vertex="1" parent="1">
          <mxGeometry x="626" y="316" width="277" height="200" as="geometry" />
        </mxCell>
        <mxCell id="03z_p-ZI_NNYULRoPV4D-9" value="" style="rounded=0;whiteSpace=wrap;html=1;fontSize=14;strokeColor=#000000;strokeWidth=3;fillColor=#A8C0C0;fontStyle=1" vertex="1" parent="1">
          <mxGeometry x="633" y="568" width="240" height="168" as="geometry" />
        </mxCell>
        <mxCell id="03z_p-ZI_NNYULRoPV4D-10" value="&lt;span style=&quot;font-weight: normal&quot;&gt;Objects&lt;/span&gt;" style="rounded=0;whiteSpace=wrap;html=1;fontSize=14;strokeColor=none;strokeWidth=1;fillColor=none;fontStyle=1" vertex="1" parent="1">
          <mxGeometry x="256" y="376" width="60" height="40" as="geometry" />
        </mxCell>
        <mxCell id="03z_p-ZI_NNYULRoPV4D-11" value="Devices" style="rounded=0;whiteSpace=wrap;html=1;fontSize=14;strokeColor=none;strokeWidth=1;fillColor=none;fontStyle=0" vertex="1" parent="1">
          <mxGeometry x="324.75" y="382.5" width="54.25" height="25" as="geometry" />
        </mxCell>
        <mxCell id="03z_p-ZI_NNYULRoPV4D-12" value="&lt;span style=&quot;font-weight: normal&quot;&gt;Sensors&lt;/span&gt;" style="rounded=0;whiteSpace=wrap;html=1;fontSize=14;strokeColor=none;strokeWidth=1;fillColor=none;fontStyle=1" vertex="1" parent="1">
          <mxGeometry x="389" y="370" width="60" height="45" as="geometry" />
        </mxCell>
        <mxCell id="03z_p-ZI_NNYULRoPV4D-13" value="&lt;span style=&quot;font-weight: normal&quot;&gt;Users&lt;/span&gt;" style="rounded=0;whiteSpace=wrap;html=1;fontSize=14;strokeColor=none;strokeWidth=1;fillColor=none;fontStyle=1" vertex="1" parent="1">
          <mxGeometry x="198" y="377" width="50.5" height="40" as="geometry" />
        </mxCell>
        <mxCell id="03z_p-ZI_NNYULRoPV4D-14" value="Reinforcements" style="rounded=0;whiteSpace=wrap;html=1;fontSize=14;strokeColor=default;strokeWidth=2;fillColor=#F0D8D8;fontStyle=1" vertex="1" parent="1">
          <mxGeometry x="204" y="578" width="117" height="60" as="geometry" />
        </mxCell>
        <mxCell id="03z_p-ZI_NNYULRoPV4D-15" value="Awareness" style="rounded=0;whiteSpace=wrap;html=1;fontSize=14;strokeColor=default;strokeWidth=2;fillColor=#F0D8D8;fontStyle=1" vertex="1" parent="1">
          <mxGeometry x="336" y="578" width="80" height="60" as="geometry" />
        </mxCell>
        <mxCell id="03z_p-ZI_NNYULRoPV4D-16" value="Restriction" style="rounded=0;whiteSpace=wrap;html=1;fontSize=14;strokeColor=default;strokeWidth=2;fillColor=#F0D8D8;fontStyle=1" vertex="1" parent="1">
          <mxGeometry x="286" y="651" width="80" height="60" as="geometry" />
        </mxCell>
        <mxCell id="03z_p-ZI_NNYULRoPV4D-17" value="" style="endArrow=classic;html=1;rounded=0;fontSize=14;strokeWidth=3;" edge="1" parent="1">
          <mxGeometry width="50" height="50" relative="1" as="geometry">
            <mxPoint x="333" y="536" as="sourcePoint" />
            <mxPoint x="333" y="426" as="targetPoint" />
          </mxGeometry>
        </mxCell>
        <mxCell id="03z_p-ZI_NNYULRoPV4D-18" value="" style="endArrow=classic;html=1;rounded=0;fontSize=14;strokeWidth=3;entryX=0.59;entryY=-0.03;entryDx=0;entryDy=0;entryPerimeter=0;" edge="1" parent="1" target="03z_p-ZI_NNYULRoPV4D-25">
          <mxGeometry width="50" height="50" relative="1" as="geometry">
            <mxPoint x="752" y="248" as="sourcePoint" />
            <mxPoint x="752" y="298" as="targetPoint" />
          </mxGeometry>
        </mxCell>
        <mxCell id="03z_p-ZI_NNYULRoPV4D-19" value="" style="endArrow=classic;html=1;rounded=0;fontSize=14;strokeWidth=3;exitX=0.589;exitY=1.033;exitDx=0;exitDy=0;exitPerimeter=0;" edge="1" parent="1">
          <mxGeometry width="50" height="50" relative="1" as="geometry">
            <mxPoint x="760.01" y="516.98" as="sourcePoint" />
            <mxPoint x="760" y="566" as="targetPoint" />
          </mxGeometry>
        </mxCell>
        <mxCell id="03z_p-ZI_NNYULRoPV4D-20" value="" style="curved=1;endArrow=classic;html=1;rounded=0;fontSize=14;strokeWidth=3;exitX=0;exitY=0.5;exitDx=0;exitDy=0;" edge="1" parent="1" source="03z_p-ZI_NNYULRoPV4D-9">
          <mxGeometry width="50" height="50" relative="1" as="geometry">
            <mxPoint x="484" y="635" as="sourcePoint" />
            <mxPoint x="433" y="652" as="targetPoint" />
            <Array as="points">
              <mxPoint x="603" y="666" />
              <mxPoint x="563" y="676" />
              <mxPoint x="473" y="676" />
            </Array>
          </mxGeometry>
        </mxCell>
        <mxCell id="03z_p-ZI_NNYULRoPV4D-21" value="" style="endArrow=classic;html=1;rounded=0;fontSize=14;strokeWidth=2;" edge="1" parent="1">
          <mxGeometry width="50" height="50" relative="1" as="geometry">
            <mxPoint x="290" y="255" as="sourcePoint" />
            <mxPoint x="290" y="255" as="targetPoint" />
          </mxGeometry>
        </mxCell>
        <mxCell id="03z_p-ZI_NNYULRoPV4D-22" value="Smart Environment" style="text;html=1;strokeColor=none;fillColor=none;align=center;verticalAlign=middle;whiteSpace=wrap;rounded=0;fontStyle=1;fontSize=15;" vertex="1" parent="1">
          <mxGeometry x="242" y="175" width="150" height="30" as="geometry" />
        </mxCell>
        <mxCell id="03z_p-ZI_NNYULRoPV4D-23" value="Smart Factory" style="rounded=0;whiteSpace=wrap;html=1;fontSize=14;strokeColor=default;strokeWidth=1;fillColor=none;dashed=1;dashPattern=1 2;" vertex="1" parent="1">
          <mxGeometry x="229.75" y="260" width="90.25" height="43" as="geometry" />
        </mxCell>
        <mxCell id="03z_p-ZI_NNYULRoPV4D-24" value="Smart Building" style="rounded=0;whiteSpace=wrap;html=1;fontSize=14;strokeColor=default;strokeWidth=1;fillColor=none;dashed=1;dashPattern=1 2;" vertex="1" parent="1">
          <mxGeometry x="333.88" y="262" width="95.12" height="43" as="geometry" />
        </mxCell>
        <mxCell id="03z_p-ZI_NNYULRoPV4D-25" value="&lt;b&gt;Behaviour model&lt;/b&gt;" style="text;html=1;strokeColor=none;fillColor=none;align=center;verticalAlign=middle;whiteSpace=wrap;rounded=0;fontSize=15;" vertex="1" parent="1">
          <mxGeometry x="678.5" y="316" width="125" height="40" as="geometry" />
        </mxCell>
        <mxCell id="03z_p-ZI_NNYULRoPV4D-26" value="Knowledge driven" style="rounded=0;whiteSpace=wrap;html=1;fontSize=15;strokeWidth=1;fillColor=#F0C0C0;dashed=1;dashPattern=1 1;" vertex="1" parent="1">
          <mxGeometry x="637" y="352" width="90" height="50" as="geometry" />
        </mxCell>
        <mxCell id="03z_p-ZI_NNYULRoPV4D-27" value="Data driven" style="rounded=0;whiteSpace=wrap;html=1;fontSize=14;strokeWidth=1;fontStyle=0;fillColor=#F0C0C0;dashed=1;dashPattern=1 1;" vertex="1" parent="1">
          <mxGeometry x="646" y="409.5" width="70" height="50" as="geometry" />
        </mxCell>
        <mxCell id="03z_p-ZI_NNYULRoPV4D-28" value="Hybrid" style="rounded=0;whiteSpace=wrap;html=1;fontSize=15;strokeWidth=1;fillColor=#F0C0C0;dashed=1;dashPattern=1 1;" vertex="1" parent="1">
          <mxGeometry x="735" y="356" width="67" height="33" as="geometry" />
        </mxCell>
        <mxCell id="03z_p-ZI_NNYULRoPV4D-29" value="Top down" style="rounded=0;whiteSpace=wrap;html=1;fontSize=15;strokeWidth=1;fillColor=#F0C0C0;dashed=1;dashPattern=1 1;" vertex="1" parent="1">
          <mxGeometry x="817" y="475" width="72" height="33" as="geometry" />
        </mxCell>
        <mxCell id="03z_p-ZI_NNYULRoPV4D-30" value="Bottom up" style="rounded=0;whiteSpace=wrap;html=1;fontSize=15;strokeWidth=1;fillColor=#F0C0C0;dashed=1;dashPattern=1 1;" vertex="1" parent="1">
          <mxGeometry x="639.5" y="468" width="81" height="40" as="geometry" />
        </mxCell>
        <mxCell id="03z_p-ZI_NNYULRoPV4D-31" value="&lt;b style=&quot;font-size: 15px;&quot;&gt;Classification&lt;/b&gt;" style="text;html=1;strokeColor=none;fillColor=none;align=center;verticalAlign=middle;whiteSpace=wrap;rounded=0;dashed=1;dashPattern=1 1;fontSize=15;" vertex="1" parent="1">
          <mxGeometry x="722" y="573" width="80" height="30" as="geometry" />
        </mxCell>
        <mxCell id="03z_p-ZI_NNYULRoPV4D-32" value="Generative models" style="rounded=0;whiteSpace=wrap;html=1;dashed=1;dashPattern=1 1;fontSize=14;strokeWidth=2;fillColor=#A8C0C0;" vertex="1" parent="1">
          <mxGeometry x="640.5" y="608" width="97.5" height="48" as="geometry" />
        </mxCell>
        <mxCell id="03z_p-ZI_NNYULRoPV4D-33" value="Discriminative models" style="rounded=0;whiteSpace=wrap;html=1;fontSize=14;strokeWidth=2;fillColor=#A8C0C0;fontStyle=1" vertex="1" parent="1">
          <mxGeometry x="746" y="608" width="120" height="50" as="geometry" />
        </mxCell>
        <mxCell id="03z_p-ZI_NNYULRoPV4D-34" value="Hybrid models" style="rounded=0;whiteSpace=wrap;html=1;dashed=1;dashPattern=1 1;fontSize=14;strokeWidth=2;fillColor=#A8C0C0;" vertex="1" parent="1">
          <mxGeometry x="691" y="666" width="84" height="60" as="geometry" />
        </mxCell>
        <mxCell id="03z_p-ZI_NNYULRoPV4D-35" value="Intervention" style="text;html=1;strokeColor=none;fillColor=none;align=center;verticalAlign=middle;whiteSpace=wrap;rounded=0;fontSize=15;fontStyle=1" vertex="1" parent="1">
          <mxGeometry x="291.44" y="545" width="90" height="33" as="geometry" />
        </mxCell>
        <mxCell id="03z_p-ZI_NNYULRoPV4D-36" value="" style="endArrow=classic;html=1;rounded=0;fontSize=15;exitX=1;exitY=0.25;exitDx=0;exitDy=0;strokeWidth=3;entryX=0.004;entryY=0.442;entryDx=0;entryDy=0;entryPerimeter=0;" edge="1" parent="1" source="03z_p-ZI_NNYULRoPV4D-4" target="03z_p-ZI_NNYULRoPV4D-41">
          <mxGeometry width="50" height="50" relative="1" as="geometry">
            <mxPoint x="513" y="326" as="sourcePoint" />
            <mxPoint x="632" y="198.5" as="targetPoint" />
          </mxGeometry>
        </mxCell>
        <mxCell id="03z_p-ZI_NNYULRoPV4D-37" value="Breadth-first" style="rounded=0;whiteSpace=wrap;html=1;fontSize=15;strokeWidth=1;fillColor=#F0C0C0;strokeColor=#000000;dashed=1;dashPattern=1 1;" vertex="1" parent="1">
          <mxGeometry x="809.5" y="418" width="81" height="50" as="geometry" />
        </mxCell>
        <mxCell id="03z_p-ZI_NNYULRoPV4D-38" value="Depth-first" style="rounded=0;whiteSpace=wrap;html=1;fontSize=15;strokeWidth=2;fillColor=#F0C0C0;strokeColor=#000000;fontStyle=1" vertex="1" parent="1">
          <mxGeometry x="817" y="347" width="66" height="60" as="geometry" />
        </mxCell>
        <mxCell id="03z_p-ZI_NNYULRoPV4D-39" value="Vertical&amp;nbsp;" style="rounded=0;whiteSpace=wrap;html=1;fontSize=15;strokeWidth=2;fillColor=#F0C0C0;fontStyle=1" vertex="1" parent="1">
          <mxGeometry x="734" y="448" width="67" height="33" as="geometry" />
        </mxCell>
        <mxCell id="03z_p-ZI_NNYULRoPV4D-40" value="Horizontal" style="rounded=0;whiteSpace=wrap;html=1;fontSize=15;strokeWidth=1;fillColor=#F0C0C0;dashed=1;dashPattern=1 1;" vertex="1" parent="1">
          <mxGeometry x="725" y="402" width="75" height="33" as="geometry" />
        </mxCell>
        <mxCell id="03z_p-ZI_NNYULRoPV4D-41" value="" style="rounded=0;whiteSpace=wrap;html=1;fontSize=14;strokeWidth=3;fillColor=#C0C0A8;" vertex="1" parent="1">
          <mxGeometry x="621.5" y="60" width="292" height="187" as="geometry" />
        </mxCell>
        <mxCell id="03z_p-ZI_NNYULRoPV4D-42" value="Static user model" style="rounded=0;whiteSpace=wrap;html=1;fontSize=14;strokeColor=default;strokeWidth=2;fillColor=#C0C0A8;fontStyle=0;" vertex="1" parent="1">
          <mxGeometry x="659.5" y="105" width="72" height="50" as="geometry" />
        </mxCell>
        <mxCell id="03z_p-ZI_NNYULRoPV4D-43" value="Dynamic User model&lt;span style=&quot;color: rgba(0, 0, 0, 0); font-family: monospace; font-size: 0px;&quot;&gt;%3CmxGraphModel%3E%3Croot%3E%3CmxCell%20id%3D%220%22%2F%3E%3CmxCell%20id%3D%221%22%20parent%3D%220%22%2F%3E%3CmxCell%20id%3D%222%22%20value%3D%22User%20model%22%20style%3D%22rounded%3D0%3BwhiteSpace%3Dwrap%3Bhtml%3D1%3BfontSize%3D14%3BstrokeColor%3D%23000000%3BstrokeWidth%3D3%3BfillColor%3D%23C0C0A8%3BfontStyle%3D1%22%20vertex%3D%221%22%20parent%3D%221%22%3E%3CmxGeometry%20x%3D%22425%22%20y%3D%221380%22%20width%3D%22120%22%20height%3D%2260%22%20as%3D%22geometry%22%2F%3E%3C%2FmxCell%3E%3C%2Froot%3E%3C%2FmxGraphModel%3E&lt;/span&gt;&lt;span style=&quot;color: rgba(0, 0, 0, 0); font-family: monospace; font-size: 0px;&quot;&gt;%3CmxGraphModel%3E%3Croot%3E%3CmxCell%20id%3D%220%22%2F%3E%3CmxCell%20id%3D%221%22%20parent%3D%220%22%2F%3E%3CmxCell%20id%3D%222%22%20value%3D%22User%20model%22%20style%3D%22rounded%3D0%3BwhiteSpace%3Dwrap%3Bhtml%3D1%3BfontSize%3D14%3BstrokeColor%3D%23000000%3BstrokeWidth%3D3%3BfillColor%3D%23C0C0A8%3BfontStyle%3D1%22%20vertex%3D%221%22%20parent%3D%221%22%3E%3CmxGeometry%20x%3D%22425%22%20y%3D%221380%22%20width%3D%22120%22%20height%3D%2260%22%20as%3D%22geometry%22%2F%3E%3C%2FmxCell%3E%3C%2Froot%3E%3C%2FmxGraphModel%3E&lt;/span&gt;" style="rounded=0;whiteSpace=wrap;html=1;fontSize=14;strokeColor=default;strokeWidth=1;fillColor=#C0C0A8;fontStyle=0;dashed=1;dashPattern=1 2;" vertex="1" parent="1">
          <mxGeometry x="798.5" y="107.5" width="94.5" height="44" as="geometry" />
        </mxCell>
        <mxCell id="03z_p-ZI_NNYULRoPV4D-44" value="Internal context model" style="rounded=0;whiteSpace=wrap;html=1;fontSize=14;strokeColor=#000000;strokeWidth=2;fillColor=#C0C0A8;fontStyle=1;" vertex="1" parent="1">
          <mxGeometry x="628.5" y="168.5" width="103" height="63" as="geometry" />
        </mxCell>
        <mxCell id="03z_p-ZI_NNYULRoPV4D-45" value="&lt;b&gt;Activity model&lt;/b&gt;" style="rounded=0;whiteSpace=wrap;html=1;fontSize=14;strokeColor=#000000;strokeWidth=2;fillColor=#C0C0A8;fontStyle=0" vertex="1" parent="1">
          <mxGeometry x="740.5" y="168.5" width="59" height="60" as="geometry" />
        </mxCell>
        <mxCell id="03z_p-ZI_NNYULRoPV4D-46" value="User Model" style="text;html=1;strokeColor=none;fillColor=none;align=center;verticalAlign=middle;whiteSpace=wrap;rounded=0;fontSize=15;fontStyle=1" vertex="1" parent="1">
          <mxGeometry x="686.5" y="68" width="103" height="30" as="geometry" />
        </mxCell>
        <mxCell id="03z_p-ZI_NNYULRoPV4D-47" value="Environmental context model" style="rounded=0;whiteSpace=wrap;html=1;fontSize=14;strokeColor=default;strokeWidth=1;fillColor=#C0C0A8;fontStyle=0;dashed=1;dashPattern=1 2;" vertex="1" parent="1">
          <mxGeometry x="804.5" y="170.5" width="102" height="56" as="geometry" />
        </mxCell>
      </root>
    </mxGraphModel>
  </diagram>
</mxfile>
